<mxfile host="app.diagrams.net" modified="2023-08-31T08:38:40.070Z" agent="Mozilla/5.0 (Windows NT 10.0; Win64; x64) AppleWebKit/537.36 (KHTML, like Gecko) Chrome/116.0.0.0 Safari/537.36" version="21.6.9" etag="xI_l2B6Ji5nuWSUwsODL" type="github">
  <diagram name="Page-1" id="n-vTJbwa5jrU47sz1mU_">
    <mxGraphModel>
      <root>
        <mxCell id="0" />
        <mxCell id="1" parent="0" />
      </root>
    </mxGraphModel>
  </diagram>
</mxfile>
